<?xml version="1.0" encoding="utf-8"?>
<!-- Generator: Adobe Illustrator 21.1.0, SVG Export Plug-In . SVG Version: 6.00 Build 0)  -->
<svg version="1.1" id="Layer_3" xmlns="http://www.w3.org/2000/svg" xmlns:xlink="http://www.w3.org/1999/xlink" x="0px" y="0px"
	 viewBox="0 0 2000 1414.3" style="enable-background:new 0 0 2000 1414.3;" xml:space="preserve">
<style type="text/css">
	.st0{fill:#054752;}
	.st1{fill:#FFFFFF;}
	.st2{fill:#9EF769;}
	.st3{fill:#666666;}
	.st4{fill:#DDDDDD;}
	.st5{fill:#2DBEFF;}
</style>
<g>
	<g>
		<path class="st0" d="M539.1,709.9c-7.6-44.5-49.8-74.5-94.3-67l13.1-74.6l-47.6-8.4c-4.1,9-22,49.9-30.7,96
			c17.7,12.1,30.7,31.1,34.6,53.9c4.1,24.4-3,48.1-17.6,65.7c3.6,4.4,7.7,8.4,12.3,12c18.6,14.6,41.2,20.3,63.2,16.6
			C516.7,796.6,546.7,754.4,539.1,709.9z"/>
		<path class="st5" d="M378.7,661c0.3-1.7,0.6-3.4,0.9-5.1c-16.9-11.5-38-16.7-59.7-13.1l13.1-74.6l-47.6-8.4
			c-4.2,9.3-23.3,52.9-31.6,101.1c-6.6,38.7-6.3,80.3,14.1,109.6c4.4,6.3,9.7,12,16.1,17c18.6,14.6,41.2,20.3,63.2,16.6
			c20.2-3.4,37.3-14,49.4-28.6c-1.3-1.6-2.6-3.3-3.8-5C372.4,741.3,372.1,699.7,378.7,661z"/>
		<path class="st2" d="M414.2,709.9c-3.9-22.8-16.9-41.8-34.6-53.9c-0.3,1.7-0.6,3.4-0.9,5.1c-6.6,38.7-6.3,80.3,14.1,109.6
			c1.2,1.7,2.5,3.4,3.8,5C411.2,757.9,418.4,734.2,414.2,709.9z"/>
	</g>
	<g>
		<path class="st0" d="M1499,787.7h-28.5c-0.9,0-1.7,0.6-2,1.4c-4.1,10.5-9.6,19.3-17.6,25.5c-7.9,6.2-18.2,9.7-31.6,9.7
			c-18.3,0-33-8-43.1-21.4c-10-13.4-15.5-32.1-15.5-53.5c0-21.6,5.5-40.3,15.6-53.6c10.1-13.3,24.8-21.3,42.9-21.3
			c13.4,0,23.6,3.5,31.6,9.6c7.9,6.1,13.5,14.9,17.6,25.2c0.3,0.8,1.1,1.4,2,1.4h28.5c0.6,0,1.1-0.2,1.5-0.6
			c0.4-0.4,0.6-0.9,0.6-1.5l-0.1-0.5c-4.3-19.3-13.6-35.2-27.4-46.2c-13.8-11-32.1-17.3-54.4-17.3c-26.1,0-49.1,10.6-65.6,28.9
			c-16.5,18.4-26.5,44.5-26.5,75.8c0,31.3,10,57.5,26.5,75.8c16.5,18.4,39.5,28.9,65.6,28.9c22.2,0,40.4-6.2,54.3-17.3
			c13.8-11.1,23.2-27,27.5-46.5l0.1-0.5c0-0.6-0.2-1.1-0.6-1.5C1500.2,787.9,1499.6,787.7,1499,787.7z"/>
		<path class="st0" d="M1748.2,703.6c-1.9-0.4-4.8-0.8-8.7-0.8c-3.4,0-7.6,0.3-12.4,1.2c-4.2,0.8-8.4,2.4-12.4,4.6
			c-4,2.2-7.9,5.2-11.5,8.8c-2.1,2.1-4,4.5-5.8,7.3l-1.3,2v-19.3c0-1.2-1-2.2-2.2-2.2h-26.7c-1.2,0-2.2,1-2.2,2.2v141.9
			c0,1.2,1,2.2,2.2,2.2h27.3c1.2,0,2.2-1,2.2-2.2v-68.9c0-8,0.9-14.8,2.7-20.4c1.8-5.6,4.5-10.1,8.1-13.4c3.6-3.4,7.7-6,12.5-7.7
			c5.7-2,11.8-2.6,17-2.6c4.2,0,7.9,0.4,10.4,0.8l0.3,0c1.2,0,2.1-0.9,2.1-2.2v-29.1C1750,704.7,1749.3,703.8,1748.2,703.6z"/>
		<path class="st0" d="M1158.8,644.6l-0.4,0l-27.5,4.8c-1,0.2-1.8,1.1-1.8,2.1v197.7c0,1.2,1,2.2,2.2,2.2h27.6c1.2,0,2.2-1,2.2-2.2
			V646.8C1161,645.6,1160,644.6,1158.8,644.6z"/>
		<path class="st0" d="M1102.2,762.1c-4.1-8.3-9.6-15.3-16.5-21l-2-1.6c-3-2.3-6.3-4.4-9.8-6.1l-0.8-0.4l0.6-0.7
			c3.2-3.7,5.9-7.9,8-12.6c3-6.6,4.5-13.5,4.5-20.7l0,0l0,0v0c0-7.8-1.6-15.1-4.6-22c-3.1-6.9-7.3-12.8-12.7-17.8l0,0
			c-5-4.6-10.9-8.2-17.6-10.8c-6.8-2.6-15.3-3.9-25.3-3.9h-60.5c-1.2,0-2.2,1-2.2,2.2v202.6c0,1.2,1,2.2,2.2,2.2h74.6
			c10.6,0,19.5-1.2,26.7-3.6c7.1-2.4,13.5-5.9,18.9-10.5c6.9-5.7,12.5-12.8,16.6-21.1c0.9-1.8,1.7-3.6,2.4-5.4l0,0l0.3-0.7l0,0
			c0.2-0.4,0.3-0.9,0.5-1.4l0,0c2.1-6.2,3.2-12.7,3.2-19.5v0l0,0l0,0C1108.5,779.5,1106.4,770.4,1102.2,762.1z M995.1,675h25.5h0.1
			c8,0,14,0.7,17.8,2.1c3.9,1.4,6.9,3.4,9,5.9l0,0l0,0l0,0c4.4,4.8,6.6,10.4,6.6,16.9v0c0,6.5-2.2,12-6.6,16.9l0,0l0,0
			c-2.2,2.5-5.1,4.5-9,5.9c-2.8,1-6.9,1.7-12.1,2h-31.3V675z M1073.3,800.6L1073.3,800.6c-1.7,3.9-3.9,7.4-6.7,10.4l0,0
			c-3.2,3.1-7.1,5.6-11.7,7.4c-4.6,1.7-11.5,2.7-20.7,2.7h-39.1v-65.8h39l0.1,0c9.2,0,16.1,0.9,20.7,2.7c4.7,1.8,8.6,4.3,11.7,7.4
			l0,0l0,0c2.8,3,5,6.4,6.7,10.2c1.7,3.8,2.5,7.9,2.5,12.4C1075.9,792.5,1075,796.7,1073.3,800.6z"/>
		<path class="st0" d="M1291.3,716.9c-10.7-9.6-25.3-14.4-43.5-14.4c-16.3,0-29.7,4-40.1,11.9c-9,6.8-15.3,15.4-18.8,25.6
			c-0.4,1.1,0.3,2.3,1.5,2.5l25.8,4.5c0.9,0.2,1.7-0.3,2.1-1.1c5.2-11.6,15.1-17.3,29.7-17.3c9.8,0,17.5,2.7,22.9,8.2
			c5.4,5.5,8.2,12.8,8.2,21.9v5.3c-13.7-4.1-26.6-6.1-38.6-6.1c-17,0-31.2,4.3-42.5,12.9c-11.3,8.6-16.9,20.7-16.9,36.2
			c0,14.8,5.1,26.4,15.4,34.8c10.3,8.4,22.7,12.6,37.3,12.6c18.7,0.1,33.9-5.4,45.3-16.6v11.3c0,1.3,1.1,2.4,2.4,2.4h23.8
			c1.3,0,2.4-1.1,2.4-2.4v-27.4v-65.1C1307.5,739.8,1302.1,726.5,1291.3,716.9z M1267,817.1c-8,6.6-17.8,9.8-29.4,9.8
			c-8.5,0-15.1-1.9-19.6-5.7c-4.5-3.8-6.8-9-6.8-15.6c0-7.2,2.9-12.6,8.6-16.2c5.7-3.6,13-5.5,21.9-5.5c11.5,0,23.9,2,37.2,6.1
			C1278.9,801.6,1274.9,810.5,1267,817.1z"/>
		<path class="st0" d="M787.7,644.6l-0.4,0l-27.5,4.8c-1,0.2-1.8,1.1-1.8,2.1v197.7c0,1.2,1,2.2,2.2,2.2h27.6c1.2,0,2.2-1,2.2-2.2
			V646.8C789.9,645.6,788.9,644.6,787.7,644.6z"/>
		<path class="st0" d="M731.1,762.1c-4.1-8.3-9.6-15.3-16.5-21l-2-1.6c-3-2.3-6.3-4.4-9.8-6.1l-0.8-0.4l0.6-0.7
			c3.2-3.7,5.9-7.9,8-12.6c3-6.6,4.5-13.5,4.5-20.7l0,0l0,0v0c0-7.8-1.6-15.1-4.6-22c-3.1-6.9-7.3-12.8-12.7-17.8l0,0
			c-5-4.6-10.9-8.2-17.6-10.8c-6.8-2.6-15.3-3.9-25.3-3.9h-60.5c-1.2,0-2.2,1-2.2,2.2v202.6c0,1.2,1,2.2,2.2,2.2h74.6
			c10.6,0,19.5-1.2,26.7-3.6c7.1-2.4,13.5-5.9,18.9-10.5c6.9-5.7,12.5-12.8,16.6-21.1c0.9-1.8,1.7-3.6,2.4-5.4l0,0l0.3-0.7l0,0
			c0.2-0.4,0.3-0.9,0.5-1.4l0,0c2.1-6.2,3.2-12.7,3.2-19.5v0l0,0l0,0C737.4,779.5,735.3,770.4,731.1,762.1z M624,675h25.5h0.1
			c8,0,14,0.7,17.8,2.1c3.9,1.4,6.9,3.4,9,5.9l0,0l0,0l0,0c4.4,4.8,6.6,10.4,6.6,16.9v0c0,6.5-2.2,12-6.6,16.9l0,0l0,0
			c-2.2,2.5-5.1,4.5-9,5.9c-2.8,1-6.9,1.7-12.1,2H624V675z M702.2,800.6L702.2,800.6c-1.7,3.9-3.9,7.4-6.7,10.4l0,0
			c-3.2,3.1-7.1,5.6-11.7,7.4c-4.6,1.7-11.5,2.7-20.7,2.7H624v-65.8h39l0.1,0c9.2,0,16.1,0.9,20.7,2.7c4.7,1.8,8.6,4.3,11.7,7.4l0,0
			l0,0c2.8,3,5,6.4,6.7,10.2c1.7,3.8,2.5,7.9,2.5,12.4C704.7,792.5,703.9,796.7,702.2,800.6z"/>
		<path class="st0" d="M920.2,716.9c-10.7-9.6-25.3-14.4-43.5-14.4c-16.3,0-29.7,4-40.1,11.9c-9,6.8-15.3,15.4-18.8,25.6
			c-0.4,1.1,0.3,2.3,1.5,2.5l25.8,4.5c0.9,0.2,1.7-0.3,2.1-1.1c5.2-11.6,15.1-17.3,29.7-17.3c9.8,0,17.5,2.7,22.9,8.2
			c5.4,5.5,8.2,12.8,8.2,21.9v5.3c-13.7-4.1-26.6-6.1-38.6-6.1c-17,0-31.2,4.3-42.5,12.9c-11.3,8.6-16.9,20.7-16.9,36.2
			c0,14.8,5.1,26.4,15.4,34.8c10.3,8.4,22.7,12.6,37.3,12.6c18.7,0.1,33.9-5.4,45.3-16.6v11.3c0,1.3,1.1,2.4,2.4,2.4h23.8
			c1.3,0,2.4-1.1,2.4-2.4v-27.4v-65.1C936.3,739.8,931,726.5,920.2,716.9z M895.8,817.1c-8,6.6-17.8,9.8-29.4,9.8
			c-8.5,0-15.1-1.9-19.6-5.7c-4.5-3.8-6.8-9-6.8-15.6c0-7.2,2.9-12.6,8.6-16.2c5.7-3.6,13-5.5,21.9-5.5c11.5,0,23.9,2,37.2,6.1
			C907.8,801.6,903.8,810.5,895.8,817.1z"/>
		<path class="st0" d="M1626.5,716.9c-10.7-9.6-25.3-14.4-43.5-14.4c-16.3,0-29.7,4-40.1,11.9c-9,6.8-15.3,15.4-18.8,25.6
			c-0.4,1.1,0.3,2.3,1.5,2.5l25.8,4.5c0.9,0.2,1.7-0.3,2.1-1.1c5.2-11.6,15.1-17.3,29.7-17.3c9.8,0,17.5,2.7,22.9,8.2
			c5.4,5.5,8.2,12.8,8.2,21.9v5.3c-13.7-4.1-26.6-6.1-38.6-6.1c-17,0-31.2,4.3-42.5,12.9c-11.3,8.6-16.9,20.7-16.9,36.2
			c0,14.8,5.1,26.4,15.4,34.8c10.3,8.4,22.7,12.6,37.3,12.6c18.7,0.1,33.9-5.4,45.3-16.6v11.3c0,1.3,1.1,2.4,2.4,2.4h23.8
			c1.3,0,2.4-1.1,2.4-2.4v-27.4v-65.1C1642.6,739.8,1637.2,726.5,1626.5,716.9z M1602.1,817.1c-8,6.6-17.8,9.8-29.4,9.8
			c-8.5,0-15.1-1.9-19.6-5.7c-4.5-3.8-6.8-9-6.8-15.6c0-7.2,2.9-12.6,8.6-16.2c5.7-3.6,13-5.5,21.9-5.5c11.5,0,23.9,2,37.2,6.1
			C1614.1,801.6,1610.1,810.5,1602.1,817.1z"/>
	</g>
</g>
</svg>
