<?xml version="1.0" encoding="utf-8"?>
<!-- Generator: Adobe Illustrator 21.1.0, SVG Export Plug-In . SVG Version: 6.00 Build 0)  -->
<svg version="1.1" id="Layer_3" xmlns="http://www.w3.org/2000/svg" xmlns:xlink="http://www.w3.org/1999/xlink" x="0px" y="0px"
	 viewBox="0 0 2000 1414.3" style="enable-background:new 0 0 2000 1414.3;" xml:space="preserve">
<style type="text/css">
	.st0{fill:#054752;}
	.st1{fill:#2DBEFF;}
	.st2{fill:#9EF769;}
	.st3{fill:#666666;}
	.st4{fill:#DDDDDD;}
	.st5{fill:#FFFFFF;}
</style>
<g>
	<g>
		<path class="st0" d="M1595.2,819.8C1564,635.7,1389.4,511.7,1205.2,543l54.4-308.3L1062.9,200c-16.9,37-91,206.1-126.9,397
			c73.3,50,127.1,128.5,143.1,222.9c17.1,100.8-12.4,198.6-72.7,271.8c14.8,18,31.7,34.7,51,49.7c77,60.3,170.2,83.8,261.1,68.4
			C1502.5,1178.5,1626.4,1003.9,1595.2,819.8z"/>
		<path class="st1" d="M932.1,617.9c1.2-7,2.5-14,3.8-21c-69.7-47.5-157.1-69.2-246.9-54l54.4-308.3L546.7,200
			c-17.5,38.4-96.5,218.6-130.7,418c-27.5,159.8-26.2,331.9,58.5,453c18.2,26,40.2,49.7,66.7,70.4c77,60.3,170.2,83.8,261.1,68.4
			c83.3-14.1,154.3-57.7,204.2-118.2c-5.5-6.7-10.8-13.6-15.7-20.7C905.9,949.8,904.7,777.7,932.1,617.9z"/>
		<path class="st2" d="M1079,819.8c-16-94.4-69.7-172.9-143.1-222.9c-1.3,7-2.6,14-3.8,21c-27.5,159.8-26.2,331.9,58.5,453
			c4.9,7.1,10.2,13.9,15.7,20.7C1066.6,1018.4,1096.1,920.6,1079,819.8z"/>
	</g>
</g>
</svg>
