<?xml version="1.0" encoding="UTF-8" standalone="no"?>
<svg width="38px" height="35px" viewBox="0 0 38 35" version="1.1" xmlns="http://www.w3.org/2000/svg" xmlns:xlink="http://www.w3.org/1999/xlink" xmlns:sketch="http://www.bohemiancoding.com/sketch/ns">
    <!-- Generator: Sketch 3.2.2 (9983) - http://www.bohemiancoding.com/sketch -->
    <title>github</title>
    <desc>Created with Sketch.</desc>
    <defs></defs>
    <g id="Page-1" stroke="none" stroke-width="1" fill="none" fill-rule="evenodd" sketch:type="MSPage">
        <g id="Desktop" sketch:type="MSArtboardGroup" transform="translate(-924.000000, -467.000000)" fill="#000000">
            <g id="github" sketch:type="MSLayerGroup" transform="translate(924.000000, 467.000000)">
                <path d="M19,0 C8.7833301,0 0.5,8.03391345 0.5,17.942758 C0.5,25.8700601 5.80078883,32.5971137 13.1524733,34.9685191 C14.0768447,35.1349687 14.375,34.5801368 14.375,34.1055247 L14.375,30.7646877 C9.22903641,31.8510956 8.15702427,28.648923 8.15702427,28.648923 C7.31698058,26.5740085 6.10361408,26.022051 6.10361408,26.022051 C4.42487379,24.9094258 6.23006068,24.931288 6.23006068,24.931288 C8.08796359,25.0583681 9.06648786,26.7813083 9.06648786,26.7813083 C10.7164903,29.5235018 13.3933325,28.7307106 14.4502573,28.2722122 C14.6158592,27.1127268 15.0945243,26.3214163 15.6245583,25.8731086 C11.5143252,25.420446 7.19646117,23.8813754 7.19646117,17.0053796 C7.19646117,15.0457865 7.91912864,13.445397 9.10258981,12.1896652 C8.9098665,11.7370026 8.27745388,9.91180598 9.28031553,7.44110563 C9.28031553,7.44110563 10.8340461,6.95926418 14.3688932,9.28093513 C15.84575,8.88375563 17.4282184,8.68377227 19,8.67645581 C20.5717816,8.68377227 22.157034,8.88384273 23.6339806,9.28093513 C27.1660437,6.95926418 28.7166311,7.44110563 28.7166311,7.44110563 C29.723983,9.91171888 29.0900437,11.7369155 28.8988471,12.1896652 C30.0852718,13.445397 30.8033592,15.0457865 30.8033592,17.0053796 C30.8033592,23.8974019 26.4749879,25.4145231 22.3558641,25.8584757 C23.018182,26.4148754 23.6250898,27.5084255 23.6250898,29.1818055 L23.6250898,34.1055247 C23.6250898,34.5830111 23.9215388,35.1422852 24.8595607,34.9671255 C32.2065752,32.5914521 37.5,25.8686665 37.5,17.9428451 C37.5,8.03400055 29.2164903,0 19,0 L19,0 Z" sketch:type="MSShapeGroup"></path>
            </g>
        </g>
    </g>
</svg>