<?xml version="1.0" encoding="UTF-8" standalone="no"?>
<svg width="37px" height="37px" viewBox="0 0 37 37" version="1.1" xmlns="http://www.w3.org/2000/svg" xmlns:xlink="http://www.w3.org/1999/xlink" xmlns:sketch="http://www.bohemiancoding.com/sketch/ns">
    <!-- Generator: Sketch 3.2.2 (9983) - http://www.bohemiancoding.com/sketch -->
    <title>Twitter</title>
    <desc>Created with Sketch.</desc>
    <defs></defs>
    <g id="Page-1" stroke="none" stroke-width="1" fill="none" fill-rule="evenodd" sketch:type="MSPage">
        <g id="Desktop" sketch:type="MSArtboardGroup" transform="translate(-880.000000, -467.000000)">
            <g id="Twitter" sketch:type="MSLayerGroup" transform="translate(880.000000, 467.000000)">
                <circle id="Oval-2" fill="#0CA9FA" sketch:type="MSShapeGroup" cx="18.5" cy="18.5" r="18.5"></circle>
                <path d="M29.059077,11.9503993 C28.2821135,12.2950558 27.447075,12.5280218 26.5706716,12.6326387 C27.4650665,12.0964324 28.1521753,11.2474005 28.4756111,10.2356257 C27.6384199,10.7321586 26.7112201,11.0927049 25.7243052,11.2869715 C24.9340147,10.4449107 23.8079865,9.91885338 22.5618104,9.91885338 C19.7651927,9.91885338 17.7093507,12.5286882 18.3414088,15.2387317 C14.7405585,15.0580997 11.5480267,13.3331258 9.4111463,10.7119631 C8.27619929,12.6588826 8.82245212,15.2067981 10.7519441,16.4963895 C10.0418205,16.4739387 9.37357444,16.2790058 8.78954471,15.9543911 C8.74254144,17.9617434 10.180985,19.8387474 12.2645575,20.25742 C11.6547964,20.423341 10.9869091,20.4613229 10.3080528,20.3315898 C10.8592776,22.0528219 12.4594391,23.3054565 14.3553572,23.3403629 C12.5338139,24.7678374 10.2396238,25.4054314 7.94092297,25.1345346 C9.85826683,26.3637957 12.1356957,27.0811466 14.5824286,27.0811466 C22.626395,27.0811466 27.1710526,20.2868931 26.8971316,14.193178 C27.7437543,13.5823405 28.4782253,12.8192678 29.059077,11.9503993 L29.059077,11.9503993 Z" id="twitter-icon" fill="#FFFFFF" sketch:type="MSShapeGroup"></path>
            </g>
        </g>
    </g>
</svg>